<svg xmlns="http://www.w3.org/2000/svg" xmlns:v="https://svgstorm.com"
viewBox = "0 0 200 200"
width="200"
height="200">
<g fill="None" fill-opacity="0.0" stroke="#FDFDFD" stroke-opacity="1.00" stroke-width="0.3"><path d="
M 0.00 87.00 
C 0.50 87.00 1.00 87.00 1.00 87.00
C 4.87 42.35 45.64 4.67 89.00 0.00
L 0.00 0.00
L 0.00 87.00 Z"/>
</g>
<g fill="None" fill-opacity="0.0" stroke="#242424" stroke-opacity="1.00" stroke-width="0.3"><path d="
M 1.00 87.00 
C 0.86 88.59 1.76 91.21 0.00 92.00
L 0.00 109.00
C 3.89 155.38 44.74 196.06 91.00 200.00
L 108.00 200.00
C 154.19 196.54 193.60 157.98 199.00 112.00
C 199.19 110.41 198.20 107.79 200.00 107.00
L 200.00 96.00
C 198.32 94.85 199.12 91.89 199.00 90.00
C 197.68 69.36 188.43 49.71 175.00 34.00
C 172.08 31.08 168.87 27.87 166.00 25.00
C 149.20 10.64 128.35 2.26 107.00 0.00
L 89.00 0.00
C 45.64 4.67 4.87 42.35 1.00 87.00
M 109.00 11.00 
C 174.73 17.36 211.95 98.56 172.70 151.70 C 133.45 204.83 52.24 200.50 21.08 140.92 C -10.09 81.35 38.75 4.20 109.00 11.00 Z"/>
</g>
<g fill="None" fill-opacity="0.0" stroke="#FCFCFC" stroke-opacity="1.00" stroke-width="0.3"><path d="
M 166.00 25.00 
C 169.25 27.78 172.26 30.80 175.00 34.00
C 188.43 49.71 197.68 69.36 199.00 90.00
C 199.00 89.98 200.00 90.00 200.00 90.00
L 200.00 0.00
L 107.00 0.00
C 128.35 2.26 149.20 10.64 166.00 25.00 Z"/>
</g>
<g fill="None" fill-opacity="0.0" stroke="#FCFCFB" stroke-opacity="1.00" stroke-width="0.3"><path d="
M 109.00 11.00 
C 38.75 4.20 -10.09 81.35 21.08 140.92 C 52.24 200.50 133.45 204.83 172.70 151.70 C 211.95 98.56 174.73 17.36 109.00 11.00
M 46.00 35.00 
C 50.85 36.13 52.88 46.61 56.92 50.08 C 60.96 53.56 64.32 61.20 68.75 65.25 C 73.18 69.29 76.14 75.92 80.75 80.25 C 85.36 84.58 89.55 88.92 94.25 93.75 C 98.95 98.57 106.37 92.91 112.08 89.08 C 117.79 85.24 124.83 93.72 120.68 100.68 C 116.53 107.64 106.45 106.02 100.00 106.00 C 93.55 105.98 88.67 98.49 85.25 93.75 C 81.83 89.01 78.94 81.76 74.25 77.75 C 69.55 73.74 66.70 66.37 62.25 62.75 C 57.79 59.14 54.11 50.68 49.75 48.25 C 45.38 45.83 37.25 32.97 46.00 35.00
M 150.00 97.00 
C 149.86 88.49 138.93 87.63 131.00 86.00 C 123.06 84.38 110.78 82.87 102.00 83.00
C 101.38 86.50 103.27 91.32 101.00 94.00
C 100.46 89.37 97.94 81.39 100.93 76.93 C 103.92 72.47 113.55 76.31 118.00 75.00
C 112.59 70.00 104.68 68.04 99.00 63.00
C 99.00 69.67 99.00 76.33 99.00 83.00
C 88.75 85.51 80.18 82.42 77.00 72.00
C 82.79 67.06 88.04 66.29 93.70 60.70 C 99.35 55.11 105.33 60.24 111.08 63.92 C 116.83 67.60 124.14 70.04 129.75 73.25 C 135.35 76.47 143.58 74.35 147.25 81.75 C 150.91 89.16 160.04 91.93 150.00 97.00
M 77.00 85.00 
C 68.19 86.41 52.79 86.27 51.00 97.00
C 40.91 89.96 54.34 84.78 58.75 76.75 C 63.17 68.73 76.11 75.79 77.00 85.00
M 91.00 113.00 
C 97.33 113.00 103.67 113.00 110.00 113.00
C 120.24 113.00 133.43 111.44 142.67 108.67 C 151.92 105.91 162.79 102.96 163.00 92.00
C 173.22 97.64 167.61 107.57 158.92 110.92 C 150.24 114.27 140.88 119.21 131.00 119.00
C 131.45 119.11 132.10 119.87 133.00 120.00
C 142.14 118.32 151.29 118.28 160.00 115.00
C 155.07 139.86 131.69 161.20 106.00 162.00
C 102.41 162.43 98.52 162.43 95.00 162.00
C 68.89 161.48 46.96 139.42 41.00 115.00
C 52.53 117.60 52.36 132.58 61.75 140.25 C 71.14 147.91 79.28 155.59 91.00 153.00
C 95.65 162.66 110.68 152.74 119.00 154.00
C 117.72 152.96 118.51 151.27 120.00 151.00
C 120.09 150.77 119.26 149.92 119.00 150.00
C 113.82 151.91 110.95 152.65 105.00 153.00
C 103.08 153.11 103.82 153.71 102.00 154.00
C 98.53 154.55 95.23 153.94 98.00 151.00
C 97.78 150.95 97.31 149.96 97.00 150.00
C 88.97 150.60 81.25 144.27 74.26 140.74 C 67.26 137.22 63.13 126.86 60.00 120.00
C 63.00 120.00 66.00 120.00 69.00 120.00
C 70.10 119.86 70.38 119.15 71.00 119.00
C 61.16 117.93 51.71 114.83 42.78 111.22 C 33.85 107.61 27.66 96.52 39.00 92.00
C 38.13 102.35 48.90 105.37 58.01 107.99 C 67.12 110.62 80.60 113.81 91.00 113.00
M 79.00 93.00 
C 80.89 99.50 91.68 97.96 94.00 106.00
C 85.94 106.09 80.94 105.32 73.32 102.68 C 65.70 100.04 72.18 91.41 79.00 93.00
M 120.00 105.00 
C 121.17 101.29 124.80 97.11 122.00 93.00
C 136.00 92.17 131.31 105.90 120.00 105.00
M 50.00 117.00 
C 55.09 117.84 50.09 121.84 50.00 117.00
M 60.00 126.00 
C 56.52 126.90 55.69 122.61 56.00 120.00
C 59.04 119.93 60.61 123.30 60.00 126.00
M 60.00 134.00 
C 57.02 133.95 55.30 130.56 55.00 128.00
C 57.68 128.24 60.51 131.14 60.00 134.00
M 69.00 138.00 
C 58.76 138.63 66.78 128.32 69.00 138.00
M 73.00 147.00 
C 70.33 146.10 66.25 144.37 66.00 141.00
C 69.23 140.81 73.65 143.17 73.00 147.00
M 80.00 143.00 
C 82.76 143.22 83.92 148.19 80.30 147.64 C 76.68 147.10 76.21 142.69 80.00 143.00 Z"/>
</g>
<g fill="None" fill-opacity="0.0" stroke="#7D7D7D" stroke-opacity="1.00" stroke-width="0.3"><path d="
M 175.00 34.00 
C 172.26 30.80 169.25 27.78 166.00 25.00
C 168.87 27.87 172.08 31.08 175.00 34.00 Z"/>
</g>
<g fill="None" fill-opacity="0.0" stroke="#020202" stroke-opacity="1.00" stroke-width="0.3"><path d="
M 46.00 35.00 
C 37.25 32.97 45.38 45.83 49.75 48.25 C 54.11 50.68 57.79 59.14 62.25 62.75 C 66.70 66.37 69.55 73.74 74.25 77.75 C 78.94 81.76 81.83 89.01 85.25 93.75 C 88.67 98.49 93.55 105.98 100.00 106.00 C 106.45 106.02 116.53 107.64 120.68 100.68 C 124.83 93.72 117.79 85.24 112.08 89.08 C 106.37 92.91 98.95 98.57 94.25 93.75 C 89.55 88.92 85.36 84.58 80.75 80.25 C 76.14 75.92 73.18 69.29 68.75 65.25 C 64.32 61.20 60.96 53.56 56.92 50.08 C 52.88 46.61 50.85 36.13 46.00 35.00
M 119.00 94.00 
C 114.02 89.33 108.38 96.40 103.00 97.00
C 107.03 94.42 118.00 84.12 119.00 94.00
M 117.00 95.00 
C 114.99 99.43 107.57 98.96 103.00 100.00
C 107.07 97.65 112.31 96.46 117.00 95.00
M 109.00 102.00 
C 107.37 102.16 104.33 103.94 102.00 103.00
C 103.25 101.12 106.36 102.70 108.00 101.00
C 110.98 100.39 113.88 100.11 117.00 100.00
C 116.90 103.67 111.42 101.32 109.00 102.00 Z"/>
</g>
<g fill="None" fill-opacity="0.0" stroke="#95CA4B" stroke-opacity="1.00" stroke-width="0.3"><path d="
M 150.00 97.00 
C 160.04 91.93 150.91 89.16 147.25 81.75 C 143.58 74.35 135.35 76.47 129.75 73.25 C 124.14 70.04 116.83 67.60 111.08 63.92 C 105.33 60.24 99.35 55.11 93.70 60.70 C 88.04 66.29 82.79 67.06 77.00 72.00
C 80.18 82.42 88.75 85.51 99.00 83.00
C 99.00 76.33 99.00 69.67 99.00 63.00
C 104.68 68.04 112.59 70.00 118.00 75.00
C 113.55 76.31 103.92 72.47 100.93 76.93 C 97.94 81.39 100.46 89.37 101.00 94.00
C 103.27 91.32 101.38 86.50 102.00 83.00
C 110.78 82.87 123.06 84.38 131.00 86.00 C 138.93 87.63 149.86 88.49 150.00 97.00 Z"/>
</g>
<g fill="None" fill-opacity="0.0" stroke="#94CA49" stroke-opacity="1.00" stroke-width="0.3"><path d="
M 77.00 85.00 
C 76.11 75.79 63.17 68.73 58.75 76.75 C 54.34 84.78 40.91 89.96 51.00 97.00
C 52.79 86.27 68.19 86.41 77.00 85.00 Z"/>
</g>
<g fill="None" fill-opacity="0.0" stroke="#808080" stroke-opacity="1.00" stroke-width="0.3"><path d="
M 0.00 92.00 
C 1.76 91.21 0.86 88.59 1.00 87.00
C 1.00 87.00 0.50 87.00 0.00 87.00
L 0.00 92.00 Z"/>
</g>
<g fill="None" fill-opacity="0.0" stroke="#C3C3C3" stroke-opacity="1.00" stroke-width="0.3"><path d="
M 119.00 94.00 
C 118.00 84.12 107.03 94.42 103.00 97.00
C 108.38 96.40 114.02 89.33 119.00 94.00 Z"/>
</g>
<g fill="None" fill-opacity="0.0" stroke="#7F7F7F" stroke-opacity="1.00" stroke-width="0.3"><path d="
M 200.00 96.00 
L 200.00 90.00
C 200.00 90.00 199.00 89.98 199.00 90.00
C 199.12 91.89 198.32 94.85 200.00 96.00 Z"/>
</g>
<g fill="None" fill-opacity="0.0" stroke="#000000" stroke-opacity="1.00" stroke-width="0.3"><path d="
M 71.00 119.00 
C 72.29 119.14 73.24 119.83 74.00 120.00
C 75.72 119.60 78.23 119.92 80.00 120.00
C 81.66 120.08 83.34 119.94 85.00 120.00
C 84.17 121.75 81.56 120.66 80.00 121.00
C 77.72 121.13 75.28 121.13 73.00 121.00
C 71.41 120.91 69.97 120.17 69.00 120.00
C 66.00 120.00 63.00 120.00 60.00 120.00
C 63.13 126.86 67.26 137.22 74.26 140.74 C 81.25 144.27 88.97 150.60 97.00 150.00
C 101.08 149.69 101.55 151.95 105.00 153.00
C 110.95 152.65 113.82 151.91 119.00 150.00
C 120.25 149.54 121.78 147.94 123.00 150.00
C 124.59 149.50 126.40 149.64 128.00 149.00
C 127.31 150.56 124.12 153.04 123.00 151.00
C 122.70 151.32 120.15 150.63 120.00 151.00
C 118.51 151.27 117.72 152.96 119.00 154.00
C 110.68 152.74 95.65 162.66 91.00 153.00
C 79.28 155.59 71.14 147.91 61.75 140.25 C 52.36 132.58 52.53 117.60 41.00 115.00
C 46.96 139.42 68.89 161.48 95.00 162.00
C 98.66 162.07 102.34 162.07 106.00 162.00
C 131.69 161.20 155.07 139.86 160.00 115.00
C 151.29 118.28 142.14 118.32 133.00 120.00
C 132.02 120.18 130.55 120.91 129.00 121.00
C 126.34 121.15 123.66 120.88 121.00 121.00
C 122.45 119.04 125.80 120.44 128.00 120.00
C 128.69 119.85 129.80 119.13 131.00 119.00
C 140.88 119.21 150.24 114.27 158.92 110.92 C 167.61 107.57 173.22 97.64 163.00 92.00
C 162.79 102.96 151.92 105.91 142.67 108.67 C 133.43 111.44 120.24 113.00 110.00 113.00
C 104.02 113.58 96.91 113.57 91.00 113.00
C 80.60 113.81 67.12 110.62 58.01 107.99 C 48.90 105.37 38.13 102.35 39.00 92.00
C 27.66 96.52 33.85 107.61 42.78 111.22 C 51.71 114.83 61.16 117.93 71.00 119.00
M 77.00 131.00 
C 72.52 134.12 66.46 128.91 67.00 124.00
C 69.14 127.82 73.22 130.19 77.00 131.00
M 89.00 133.00 
C 86.80 136.48 80.05 133.26 81.00 129.00
C 83.41 131.49 86.46 133.27 89.00 133.00
M 107.00 141.00 
C 104.28 143.26 100.31 140.70 99.00 138.00
C 101.46 139.44 104.77 139.66 107.00 141.00
M 97.00 144.00 
C 94.13 148.93 85.37 144.00 86.00 139.00
C 89.28 141.62 92.26 145.10 97.00 144.00
M 129.00 144.00 
C 125.87 148.37 120.72 144.57 129.00 144.00
M 115.00 147.00 
C 113.15 150.70 104.95 149.74 105.00 145.00
C 107.44 148.45 112.71 146.06 115.00 147.00 Z"/>
</g>
<g fill="None" fill-opacity="0.0" stroke="#96CB4E" stroke-opacity="1.00" stroke-width="0.3"><path d="
M 79.00 93.00 
C 72.18 91.41 65.70 100.04 73.32 102.68 C 80.94 105.32 85.94 106.09 94.00 106.00
C 91.68 97.96 80.89 99.50 79.00 93.00 Z"/>
</g>
<g fill="None" fill-opacity="0.0" stroke="#97CB4E" stroke-opacity="1.00" stroke-width="0.3"><path d="
M 120.00 105.00 
C 131.31 105.90 136.00 92.17 122.00 93.00
C 124.80 97.11 121.17 101.29 120.00 105.00 Z"/>
</g>
<g fill="None" fill-opacity="0.0" stroke="#C2C2C2" stroke-opacity="1.00" stroke-width="0.3"><path d="
M 117.00 95.00 
C 112.31 96.46 107.07 97.65 103.00 100.00
C 107.57 98.96 114.99 99.43 117.00 95.00 Z"/>
</g>
<g fill="None" fill-opacity="0.0" stroke="#D4D4D4" stroke-opacity="1.00" stroke-width="0.3"><path d="
M 108.00 101.00 
C 108.16 101.00 108.65 101.95 109.00 102.00
C 111.42 101.32 116.90 103.67 117.00 100.00
C 113.88 100.11 110.98 100.39 108.00 101.00 Z"/>
</g>
<g fill="None" fill-opacity="0.0" stroke="#8B8B8B" stroke-opacity="1.00" stroke-width="0.3"><path d="
M 109.00 102.00 
C 108.65 101.95 108.16 101.00 108.00 101.00
C 106.36 102.70 103.25 101.12 102.00 103.00
C 104.33 103.94 107.37 102.16 109.00 102.00 Z"/>
</g>
<g fill="None" fill-opacity="0.0" stroke="#ABABAB" stroke-opacity="1.00" stroke-width="0.3"><path d="
M 199.00 112.00 
C 199.04 111.87 200.00 112.00 200.00 112.00
L 200.00 107.00
C 198.20 107.79 199.19 110.41 199.00 112.00 Z"/>
</g>
<g fill="None" fill-opacity="0.0" stroke="#FCFCFC" stroke-opacity="1.00" stroke-width="0.3"><path d="
M 0.00 200.00 
L 91.00 200.00
C 44.74 196.06 3.89 155.38 0.00 109.00
L 0.00 200.00 Z"/>
</g>
<g fill="None" fill-opacity="0.0" stroke="#FCFCFC" stroke-opacity="1.00" stroke-width="0.3"><path d="
M 108.00 200.00 
L 200.00 200.00
L 200.00 112.00
C 200.00 112.00 199.04 111.87 199.00 112.00
C 193.60 157.98 154.19 196.54 108.00 200.00 Z"/>
</g>
<g fill="None" fill-opacity="0.0" stroke="#797979" stroke-opacity="1.00" stroke-width="0.3"><path d="
M 110.00 113.00 
C 103.67 113.00 97.33 113.00 91.00 113.00
C 96.91 113.57 104.02 113.58 110.00 113.00 Z"/>
</g>
<g fill="None" fill-opacity="0.0" stroke="#424242" stroke-opacity="1.00" stroke-width="0.3"><path d="
M 50.00 117.00 
C 50.09 121.84 55.09 117.84 50.00 117.00 Z"/>
</g>
<g fill="None" fill-opacity="0.0" stroke="#6D6D6D" stroke-opacity="1.00" stroke-width="0.3"><path d="
M 69.00 120.00 
C 69.97 120.17 71.41 120.91 73.00 121.00
C 73.26 120.87 73.65 120.08 74.00 120.00
C 73.24 119.83 72.29 119.14 71.00 119.00
C 70.38 119.15 70.10 119.86 69.00 120.00 Z"/>
</g>
<g fill="None" fill-opacity="0.0" stroke="#6F6F6F" stroke-opacity="1.00" stroke-width="0.3"><path d="
M 128.00 120.00 
C 128.35 120.07 128.74 120.87 129.00 121.00
C 130.55 120.91 132.02 120.18 133.00 120.00
C 132.10 119.87 131.45 119.11 131.00 119.00
C 129.80 119.13 128.69 119.85 128.00 120.00 Z"/>
</g>
<g fill="None" fill-opacity="0.0" stroke="#050505" stroke-opacity="1.00" stroke-width="0.3"><path d="
M 60.00 126.00 
C 60.61 123.30 59.04 119.93 56.00 120.00
C 55.69 122.61 56.52 126.90 60.00 126.00 Z"/>
</g>
<g fill="None" fill-opacity="0.0" stroke="#ADADAD" stroke-opacity="1.00" stroke-width="0.3"><path d="
M 73.00 121.00 
C 75.28 121.13 77.72 121.13 80.00 121.00
C 80.07 120.99 80.00 120.00 80.00 120.00
C 78.23 119.92 75.72 119.60 74.00 120.00
C 73.65 120.08 73.26 120.87 73.00 121.00 Z"/>
</g>
<g fill="None" fill-opacity="0.0" stroke="#595959" stroke-opacity="1.00" stroke-width="0.3"><path d="
M 80.00 121.00 
C 81.56 120.66 84.17 121.75 85.00 120.00
C 83.34 119.94 81.66 120.08 80.00 120.00
C 80.00 120.00 80.07 120.99 80.00 121.00 Z"/>
</g>
<g fill="None" fill-opacity="0.0" stroke="#AAAAAA" stroke-opacity="1.00" stroke-width="0.3"><path d="
M 129.00 121.00 
C 128.74 120.87 128.35 120.07 128.00 120.00
C 125.80 120.44 122.45 119.04 121.00 121.00
C 123.66 120.88 126.34 121.15 129.00 121.00 Z"/>
</g>
<g fill="None" fill-opacity="0.0" stroke="#CECECE" stroke-opacity="1.00" stroke-width="0.3"><path d="
M 77.00 131.00 
C 73.22 130.19 69.14 127.82 67.00 124.00
C 66.46 128.91 72.52 134.12 77.00 131.00 Z"/>
</g>
<g fill="None" fill-opacity="0.0" stroke="#070707" stroke-opacity="1.00" stroke-width="0.3"><path d="
M 60.00 134.00 
C 60.51 131.14 57.68 128.24 55.00 128.00
C 55.30 130.56 57.02 133.95 60.00 134.00 Z"/>
</g>
<g fill="None" fill-opacity="0.0" stroke="#C7C7C7" stroke-opacity="1.00" stroke-width="0.3"><path d="
M 89.00 133.00 
C 86.46 133.27 83.41 131.49 81.00 129.00
C 80.05 133.26 86.80 136.48 89.00 133.00 Z"/>
</g>
<g fill="None" fill-opacity="0.0" stroke="#111111" stroke-opacity="1.00" stroke-width="0.3"><path d="
M 69.00 138.00 
C 66.78 128.32 58.76 138.63 69.00 138.00 Z"/>
</g>
<g fill="None" fill-opacity="0.0" stroke="#C7C7C7" stroke-opacity="1.00" stroke-width="0.3"><path d="
M 107.00 141.00 
C 104.77 139.66 101.46 139.44 99.00 138.00
C 100.31 140.70 104.28 143.26 107.00 141.00 Z"/>
</g>
<g fill="None" fill-opacity="0.0" stroke="#DFDFDF" stroke-opacity="1.00" stroke-width="0.3"><path d="
M 97.00 144.00 
C 92.26 145.10 89.28 141.62 86.00 139.00
C 85.37 144.00 94.13 148.93 97.00 144.00 Z"/>
</g>
<g fill="None" fill-opacity="0.0" stroke="#080808" stroke-opacity="1.00" stroke-width="0.3"><path d="
M 73.00 147.00 
C 73.65 143.17 69.23 140.81 66.00 141.00
C 66.25 144.37 70.33 146.10 73.00 147.00 Z"/>
</g>
<g fill="None" fill-opacity="0.0" stroke="#171717" stroke-opacity="1.00" stroke-width="0.3"><path d="
M 80.00 143.00 
C 76.21 142.69 76.68 147.10 80.30 147.64 C 83.92 148.19 82.76 143.22 80.00 143.00 Z"/>
</g>
<g fill="None" fill-opacity="0.0" stroke="#C6C6C6" stroke-opacity="1.00" stroke-width="0.3"><path d="
M 129.00 144.00 
C 120.72 144.57 125.87 148.37 129.00 144.00 Z"/>
</g>
<g fill="None" fill-opacity="0.0" stroke="#C9C9C9" stroke-opacity="1.00" stroke-width="0.3"><path d="
M 115.00 147.00 
C 112.71 146.06 107.44 148.45 105.00 145.00
C 104.95 149.74 113.15 150.70 115.00 147.00 Z"/>
</g>
<g fill="None" fill-opacity="0.0" stroke="#A4A4A4" stroke-opacity="1.00" stroke-width="0.3"><path d="
M 97.00 150.00 
C 97.31 149.96 97.78 150.95 98.00 151.00
C 100.03 151.41 101.58 153.89 102.00 154.00
C 103.82 153.71 103.08 153.11 105.00 153.00
C 101.55 151.95 101.08 149.69 97.00 150.00 Z"/>
</g>
<g fill="None" fill-opacity="0.0" stroke="#8C8C8C" stroke-opacity="1.00" stroke-width="0.3"><path d="
M 119.00 150.00 
C 119.26 149.92 120.09 150.77 120.00 151.00
C 120.15 150.63 122.70 151.32 123.00 151.00
C 123.25 150.73 123.00 150.00 123.00 150.00
C 121.78 147.94 120.25 149.54 119.00 150.00 Z"/>
</g>
<g fill="None" fill-opacity="0.0" stroke="#BDBDBD" stroke-opacity="1.00" stroke-width="0.3"><path d="
M 123.00 150.00 
C 123.00 150.00 123.25 150.73 123.00 151.00
C 124.12 153.04 127.31 150.56 128.00 149.00
C 126.40 149.64 124.59 149.50 123.00 150.00 Z"/>
</g>
<g fill="None" fill-opacity="0.0" stroke="#010101" stroke-opacity="1.00" stroke-width="0.3"><path d="
M 102.00 154.00 
C 101.58 153.89 100.03 151.41 98.00 151.00
C 95.23 153.94 98.53 154.55 102.00 154.00 Z"/>
</g>
<g fill="None" fill-opacity="0.0" stroke="#616161" stroke-opacity="1.00" stroke-width="0.3"><path d="
M 106.00 162.00 
C 102.34 162.07 98.66 162.07 95.00 162.00
C 98.52 162.43 102.41 162.43 106.00 162.00 Z"/>
</g>
<g fill="#FDFDFD" fill-opacity="1.00" stroke="None">
<path d="
M 0.00 87.00 
C 0.50 87.00 1.00 87.00 1.00 87.00
C 4.87 42.35 45.64 4.67 89.00 0.00
L 0.00 0.00
L 0.00 87.00 Z"/>
</g>
<g fill="#242424" fill-opacity="1.00" stroke="None">
<path d="
M 1.00 87.00 
C 0.86 88.59 1.76 91.21 0.00 92.00
L 0.00 109.00
C 3.89 155.38 44.74 196.06 91.00 200.00
L 108.00 200.00
C 154.19 196.54 193.60 157.98 199.00 112.00
C 199.19 110.41 198.20 107.79 200.00 107.00
L 200.00 96.00
C 198.32 94.85 199.12 91.89 199.00 90.00
C 197.68 69.36 188.43 49.71 175.00 34.00
C 172.08 31.08 168.87 27.87 166.00 25.00
C 149.20 10.64 128.35 2.26 107.00 0.00
L 89.00 0.00
C 45.64 4.67 4.87 42.35 1.00 87.00
M 109.00 11.00 
C 174.73 17.36 211.95 98.56 172.70 151.70 C 133.45 204.83 52.24 200.50 21.08 140.92 C -10.09 81.35 38.75 4.20 109.00 11.00 Z"/>
</g>
<g fill="#FCFCFC" fill-opacity="1.00" stroke="None">
<path d="
M 166.00 25.00 
C 169.25 27.78 172.26 30.80 175.00 34.00
C 188.43 49.71 197.68 69.36 199.00 90.00
C 199.00 89.98 200.00 90.00 200.00 90.00
L 200.00 0.00
L 107.00 0.00
C 128.35 2.26 149.20 10.64 166.00 25.00 Z"/>
</g>
<g fill="#FCFCFB" fill-opacity="1.00" stroke="None">
<path d="
M 109.00 11.00 
C 38.75 4.20 -10.09 81.35 21.08 140.92 C 52.24 200.50 133.45 204.83 172.70 151.70 C 211.95 98.56 174.73 17.36 109.00 11.00
M 46.00 35.00 
C 50.85 36.13 52.88 46.61 56.92 50.08 C 60.96 53.56 64.32 61.20 68.75 65.25 C 73.18 69.29 76.14 75.92 80.75 80.25 C 85.36 84.58 89.55 88.92 94.25 93.75 C 98.95 98.57 106.37 92.91 112.08 89.08 C 117.79 85.24 124.83 93.72 120.68 100.68 C 116.53 107.64 106.45 106.02 100.00 106.00 C 93.55 105.98 88.67 98.49 85.25 93.75 C 81.83 89.01 78.94 81.76 74.25 77.75 C 69.55 73.74 66.70 66.37 62.25 62.75 C 57.79 59.14 54.11 50.68 49.75 48.25 C 45.38 45.83 37.25 32.97 46.00 35.00
M 150.00 97.00 
C 149.86 88.49 138.93 87.63 131.00 86.00 C 123.06 84.38 110.78 82.87 102.00 83.00
C 101.38 86.50 103.27 91.32 101.00 94.00
C 100.46 89.37 97.94 81.39 100.93 76.93 C 103.92 72.47 113.55 76.31 118.00 75.00
C 112.59 70.00 104.68 68.04 99.00 63.00
C 99.00 69.67 99.00 76.33 99.00 83.00
C 88.75 85.51 80.18 82.42 77.00 72.00
C 82.79 67.06 88.04 66.29 93.70 60.70 C 99.35 55.11 105.33 60.24 111.08 63.92 C 116.83 67.60 124.14 70.04 129.75 73.25 C 135.35 76.47 143.58 74.35 147.25 81.75 C 150.91 89.16 160.04 91.93 150.00 97.00
M 77.00 85.00 
C 68.19 86.41 52.79 86.27 51.00 97.00
C 40.91 89.96 54.34 84.78 58.75 76.75 C 63.17 68.73 76.11 75.79 77.00 85.00
M 91.00 113.00 
C 97.33 113.00 103.67 113.00 110.00 113.00
C 120.24 113.00 133.43 111.44 142.67 108.67 C 151.92 105.91 162.79 102.96 163.00 92.00
C 173.22 97.64 167.61 107.57 158.92 110.92 C 150.24 114.27 140.88 119.21 131.00 119.00
C 131.45 119.11 132.10 119.87 133.00 120.00
C 142.14 118.32 151.29 118.28 160.00 115.00
C 155.07 139.86 131.69 161.20 106.00 162.00
C 102.41 162.43 98.52 162.43 95.00 162.00
C 68.89 161.48 46.96 139.42 41.00 115.00
C 52.53 117.60 52.36 132.58 61.75 140.25 C 71.14 147.91 79.28 155.59 91.00 153.00
C 95.65 162.66 110.68 152.74 119.00 154.00
C 117.72 152.96 118.51 151.27 120.00 151.00
C 120.09 150.77 119.26 149.92 119.00 150.00
C 113.82 151.91 110.95 152.65 105.00 153.00
C 103.08 153.11 103.82 153.71 102.00 154.00
C 98.53 154.55 95.23 153.94 98.00 151.00
C 97.78 150.95 97.31 149.96 97.00 150.00
C 88.97 150.60 81.25 144.27 74.26 140.74 C 67.26 137.22 63.13 126.86 60.00 120.00
C 63.00 120.00 66.00 120.00 69.00 120.00
C 70.10 119.86 70.38 119.15 71.00 119.00
C 61.16 117.93 51.71 114.83 42.78 111.22 C 33.85 107.61 27.66 96.52 39.00 92.00
C 38.13 102.35 48.90 105.37 58.01 107.99 C 67.12 110.62 80.60 113.81 91.00 113.00
M 79.00 93.00 
C 80.89 99.50 91.68 97.96 94.00 106.00
C 85.94 106.09 80.94 105.32 73.32 102.68 C 65.70 100.04 72.18 91.41 79.00 93.00
M 120.00 105.00 
C 121.17 101.29 124.80 97.11 122.00 93.00
C 136.00 92.17 131.31 105.90 120.00 105.00
M 50.00 117.00 
C 55.09 117.84 50.09 121.84 50.00 117.00
M 60.00 126.00 
C 56.52 126.90 55.69 122.61 56.00 120.00
C 59.04 119.93 60.61 123.30 60.00 126.00
M 60.00 134.00 
C 57.02 133.95 55.30 130.56 55.00 128.00
C 57.68 128.24 60.51 131.14 60.00 134.00
M 69.00 138.00 
C 58.76 138.63 66.78 128.32 69.00 138.00
M 73.00 147.00 
C 70.33 146.10 66.25 144.37 66.00 141.00
C 69.23 140.81 73.65 143.17 73.00 147.00
M 80.00 143.00 
C 82.76 143.22 83.92 148.19 80.30 147.64 C 76.68 147.10 76.21 142.69 80.00 143.00 Z"/>
</g>
<g fill="#7D7D7D" fill-opacity="1.00" stroke="None">
<path d="
M 175.00 34.00 
C 172.26 30.80 169.25 27.78 166.00 25.00
C 168.87 27.87 172.08 31.08 175.00 34.00 Z"/>
</g>
<g fill="#020202" fill-opacity="1.00" stroke="None">
<path d="
M 46.00 35.00 
C 37.25 32.97 45.38 45.83 49.75 48.25 C 54.11 50.68 57.79 59.14 62.25 62.75 C 66.70 66.37 69.55 73.74 74.25 77.75 C 78.94 81.76 81.83 89.01 85.25 93.75 C 88.67 98.49 93.55 105.98 100.00 106.00 C 106.45 106.02 116.53 107.64 120.68 100.68 C 124.83 93.72 117.79 85.24 112.08 89.08 C 106.37 92.91 98.95 98.57 94.25 93.75 C 89.55 88.92 85.36 84.58 80.75 80.25 C 76.14 75.92 73.18 69.29 68.75 65.25 C 64.32 61.20 60.96 53.56 56.92 50.08 C 52.88 46.61 50.85 36.13 46.00 35.00
M 119.00 94.00 
C 114.02 89.33 108.38 96.40 103.00 97.00
C 107.03 94.42 118.00 84.12 119.00 94.00
M 117.00 95.00 
C 114.99 99.43 107.57 98.96 103.00 100.00
C 107.07 97.65 112.31 96.46 117.00 95.00
M 109.00 102.00 
C 107.37 102.16 104.33 103.94 102.00 103.00
C 103.25 101.12 106.36 102.70 108.00 101.00
C 110.98 100.39 113.88 100.11 117.00 100.00
C 116.90 103.67 111.42 101.32 109.00 102.00 Z"/>
</g>
<g fill="#95CA4B" fill-opacity="1.00" stroke="None">
<path d="
M 150.00 97.00 
C 160.04 91.93 150.91 89.16 147.25 81.75 C 143.58 74.35 135.35 76.47 129.75 73.25 C 124.14 70.04 116.83 67.60 111.08 63.92 C 105.33 60.24 99.35 55.11 93.70 60.70 C 88.04 66.29 82.79 67.06 77.00 72.00
C 80.18 82.42 88.75 85.51 99.00 83.00
C 99.00 76.33 99.00 69.67 99.00 63.00
C 104.68 68.04 112.59 70.00 118.00 75.00
C 113.55 76.31 103.92 72.47 100.93 76.93 C 97.94 81.39 100.46 89.37 101.00 94.00
C 103.27 91.32 101.38 86.50 102.00 83.00
C 110.78 82.87 123.06 84.38 131.00 86.00 C 138.93 87.63 149.86 88.49 150.00 97.00 Z"/>
</g>
<g fill="#94CA49" fill-opacity="1.00" stroke="None">
<path d="
M 77.00 85.00 
C 76.11 75.79 63.17 68.73 58.75 76.75 C 54.34 84.78 40.91 89.96 51.00 97.00
C 52.79 86.27 68.19 86.41 77.00 85.00 Z"/>
</g>
<g fill="#808080" fill-opacity="1.00" stroke="None">
<path d="
M 0.00 92.00 
C 1.76 91.21 0.86 88.59 1.00 87.00
C 1.00 87.00 0.50 87.00 0.00 87.00
L 0.00 92.00 Z"/>
</g>
<g fill="#C3C3C3" fill-opacity="1.00" stroke="None">
<path d="
M 119.00 94.00 
C 118.00 84.12 107.03 94.42 103.00 97.00
C 108.38 96.40 114.02 89.33 119.00 94.00 Z"/>
</g>
<g fill="#7F7F7F" fill-opacity="1.00" stroke="None">
<path d="
M 200.00 96.00 
L 200.00 90.00
C 200.00 90.00 199.00 89.98 199.00 90.00
C 199.12 91.89 198.32 94.85 200.00 96.00 Z"/>
</g>
<g fill="#000000" fill-opacity="1.00" stroke="None">
<path d="
M 71.00 119.00 
C 72.29 119.14 73.24 119.83 74.00 120.00
C 75.72 119.60 78.23 119.92 80.00 120.00
C 81.66 120.08 83.34 119.94 85.00 120.00
C 84.17 121.75 81.56 120.66 80.00 121.00
C 77.72 121.13 75.28 121.13 73.00 121.00
C 71.41 120.91 69.97 120.17 69.00 120.00
C 66.00 120.00 63.00 120.00 60.00 120.00
C 63.13 126.86 67.26 137.22 74.26 140.74 C 81.25 144.27 88.97 150.60 97.00 150.00
C 101.08 149.69 101.55 151.95 105.00 153.00
C 110.95 152.65 113.82 151.91 119.00 150.00
C 120.25 149.54 121.78 147.94 123.00 150.00
C 124.59 149.50 126.40 149.64 128.00 149.00
C 127.31 150.56 124.12 153.04 123.00 151.00
C 122.70 151.32 120.15 150.63 120.00 151.00
C 118.51 151.27 117.72 152.96 119.00 154.00
C 110.68 152.74 95.65 162.66 91.00 153.00
C 79.28 155.59 71.14 147.91 61.75 140.25 C 52.36 132.58 52.53 117.60 41.00 115.00
C 46.96 139.42 68.89 161.48 95.00 162.00
C 98.66 162.07 102.34 162.07 106.00 162.00
C 131.69 161.20 155.07 139.86 160.00 115.00
C 151.29 118.28 142.14 118.32 133.00 120.00
C 132.02 120.18 130.55 120.91 129.00 121.00
C 126.34 121.15 123.66 120.88 121.00 121.00
C 122.45 119.04 125.80 120.44 128.00 120.00
C 128.69 119.85 129.80 119.13 131.00 119.00
C 140.88 119.21 150.24 114.27 158.92 110.92 C 167.61 107.57 173.22 97.64 163.00 92.00
C 162.79 102.96 151.92 105.91 142.67 108.67 C 133.43 111.44 120.24 113.00 110.00 113.00
C 104.02 113.58 96.91 113.57 91.00 113.00
C 80.60 113.81 67.12 110.62 58.01 107.99 C 48.90 105.37 38.13 102.35 39.00 92.00
C 27.66 96.52 33.85 107.61 42.78 111.22 C 51.71 114.83 61.16 117.93 71.00 119.00
M 77.00 131.00 
C 72.52 134.12 66.46 128.91 67.00 124.00
C 69.14 127.82 73.22 130.19 77.00 131.00
M 89.00 133.00 
C 86.80 136.48 80.05 133.26 81.00 129.00
C 83.41 131.49 86.46 133.27 89.00 133.00
M 107.00 141.00 
C 104.28 143.26 100.31 140.70 99.00 138.00
C 101.46 139.44 104.77 139.66 107.00 141.00
M 97.00 144.00 
C 94.13 148.93 85.37 144.00 86.00 139.00
C 89.28 141.62 92.26 145.10 97.00 144.00
M 129.00 144.00 
C 125.87 148.37 120.72 144.57 129.00 144.00
M 115.00 147.00 
C 113.15 150.70 104.95 149.74 105.00 145.00
C 107.44 148.45 112.71 146.06 115.00 147.00 Z"/>
</g>
<g fill="#96CB4E" fill-opacity="1.00" stroke="None">
<path d="
M 79.00 93.00 
C 72.18 91.41 65.70 100.04 73.32 102.68 C 80.94 105.32 85.94 106.09 94.00 106.00
C 91.68 97.96 80.89 99.50 79.00 93.00 Z"/>
</g>
<g fill="#97CB4E" fill-opacity="1.00" stroke="None">
<path d="
M 120.00 105.00 
C 131.31 105.90 136.00 92.17 122.00 93.00
C 124.80 97.11 121.17 101.29 120.00 105.00 Z"/>
</g>
<g fill="#C2C2C2" fill-opacity="1.00" stroke="None">
<path d="
M 117.00 95.00 
C 112.31 96.46 107.07 97.65 103.00 100.00
C 107.57 98.96 114.99 99.43 117.00 95.00 Z"/>
</g>
<g fill="#D4D4D4" fill-opacity="1.00" stroke="None">
<path d="
M 108.00 101.00 
C 108.16 101.00 108.65 101.95 109.00 102.00
C 111.42 101.32 116.90 103.67 117.00 100.00
C 113.88 100.11 110.98 100.39 108.00 101.00 Z"/>
</g>
<g fill="#8B8B8B" fill-opacity="1.00" stroke="None">
<path d="
M 109.00 102.00 
C 108.65 101.95 108.16 101.00 108.00 101.00
C 106.36 102.70 103.25 101.12 102.00 103.00
C 104.33 103.94 107.37 102.16 109.00 102.00 Z"/>
</g>
<g fill="#ABABAB" fill-opacity="1.00" stroke="None">
<path d="
M 199.00 112.00 
C 199.04 111.87 200.00 112.00 200.00 112.00
L 200.00 107.00
C 198.20 107.79 199.19 110.41 199.00 112.00 Z"/>
</g>
<g fill="#FCFCFC" fill-opacity="1.00" stroke="None">
<path d="
M 0.00 200.00 
L 91.00 200.00
C 44.74 196.06 3.89 155.38 0.00 109.00
L 0.00 200.00 Z"/>
</g>
<g fill="#FCFCFC" fill-opacity="1.00" stroke="None">
<path d="
M 108.00 200.00 
L 200.00 200.00
L 200.00 112.00
C 200.00 112.00 199.04 111.87 199.00 112.00
C 193.60 157.98 154.19 196.54 108.00 200.00 Z"/>
</g>
<g fill="#797979" fill-opacity="1.00" stroke="None">
<path d="
M 110.00 113.00 
C 103.67 113.00 97.33 113.00 91.00 113.00
C 96.91 113.57 104.02 113.58 110.00 113.00 Z"/>
</g>
<g fill="#424242" fill-opacity="1.00" stroke="None">
<path d="
M 50.00 117.00 
C 50.09 121.84 55.09 117.84 50.00 117.00 Z"/>
</g>
<g fill="#6D6D6D" fill-opacity="1.00" stroke="None">
<path d="
M 69.00 120.00 
C 69.97 120.17 71.41 120.91 73.00 121.00
C 73.26 120.87 73.65 120.08 74.00 120.00
C 73.24 119.83 72.29 119.14 71.00 119.00
C 70.38 119.15 70.10 119.86 69.00 120.00 Z"/>
</g>
<g fill="#6F6F6F" fill-opacity="1.00" stroke="None">
<path d="
M 128.00 120.00 
C 128.35 120.07 128.74 120.87 129.00 121.00
C 130.55 120.91 132.02 120.18 133.00 120.00
C 132.10 119.87 131.45 119.11 131.00 119.00
C 129.80 119.13 128.69 119.85 128.00 120.00 Z"/>
</g>
<g fill="#050505" fill-opacity="1.00" stroke="None">
<path d="
M 60.00 126.00 
C 60.61 123.30 59.04 119.93 56.00 120.00
C 55.69 122.61 56.52 126.90 60.00 126.00 Z"/>
</g>
<g fill="#ADADAD" fill-opacity="1.00" stroke="None">
<path d="
M 73.00 121.00 
C 75.28 121.13 77.72 121.13 80.00 121.00
C 80.07 120.99 80.00 120.00 80.00 120.00
C 78.23 119.92 75.72 119.60 74.00 120.00
C 73.65 120.08 73.26 120.87 73.00 121.00 Z"/>
</g>
<g fill="#595959" fill-opacity="1.00" stroke="None">
<path d="
M 80.00 121.00 
C 81.56 120.66 84.17 121.75 85.00 120.00
C 83.34 119.94 81.66 120.08 80.00 120.00
C 80.00 120.00 80.07 120.99 80.00 121.00 Z"/>
</g>
<g fill="#AAAAAA" fill-opacity="1.00" stroke="None">
<path d="
M 129.00 121.00 
C 128.74 120.87 128.35 120.07 128.00 120.00
C 125.80 120.44 122.45 119.04 121.00 121.00
C 123.66 120.88 126.34 121.15 129.00 121.00 Z"/>
</g>
<g fill="#CECECE" fill-opacity="1.00" stroke="None">
<path d="
M 77.00 131.00 
C 73.22 130.19 69.14 127.82 67.00 124.00
C 66.46 128.91 72.52 134.12 77.00 131.00 Z"/>
</g>
<g fill="#070707" fill-opacity="1.00" stroke="None">
<path d="
M 60.00 134.00 
C 60.51 131.14 57.68 128.24 55.00 128.00
C 55.30 130.56 57.02 133.95 60.00 134.00 Z"/>
</g>
<g fill="#C7C7C7" fill-opacity="1.00" stroke="None">
<path d="
M 89.00 133.00 
C 86.46 133.27 83.41 131.49 81.00 129.00
C 80.05 133.26 86.80 136.48 89.00 133.00 Z"/>
</g>
<g fill="#111111" fill-opacity="1.00" stroke="None">
<path d="
M 69.00 138.00 
C 66.78 128.32 58.76 138.63 69.00 138.00 Z"/>
</g>
<g fill="#C7C7C7" fill-opacity="1.00" stroke="None">
<path d="
M 107.00 141.00 
C 104.77 139.66 101.46 139.44 99.00 138.00
C 100.31 140.70 104.28 143.26 107.00 141.00 Z"/>
</g>
<g fill="#DFDFDF" fill-opacity="1.00" stroke="None">
<path d="
M 97.00 144.00 
C 92.26 145.10 89.28 141.62 86.00 139.00
C 85.37 144.00 94.13 148.93 97.00 144.00 Z"/>
</g>
<g fill="#080808" fill-opacity="1.00" stroke="None">
<path d="
M 73.00 147.00 
C 73.65 143.17 69.23 140.81 66.00 141.00
C 66.25 144.37 70.33 146.10 73.00 147.00 Z"/>
</g>
<g fill="#171717" fill-opacity="1.00" stroke="None">
<path d="
M 80.00 143.00 
C 76.21 142.69 76.68 147.10 80.30 147.64 C 83.92 148.19 82.76 143.22 80.00 143.00 Z"/>
</g>
<g fill="#C6C6C6" fill-opacity="1.00" stroke="None">
<path d="
M 129.00 144.00 
C 120.72 144.57 125.87 148.37 129.00 144.00 Z"/>
</g>
<g fill="#C9C9C9" fill-opacity="1.00" stroke="None">
<path d="
M 115.00 147.00 
C 112.71 146.06 107.44 148.45 105.00 145.00
C 104.95 149.74 113.15 150.70 115.00 147.00 Z"/>
</g>
<g fill="#A4A4A4" fill-opacity="1.00" stroke="None">
<path d="
M 97.00 150.00 
C 97.31 149.96 97.78 150.95 98.00 151.00
C 100.03 151.41 101.58 153.89 102.00 154.00
C 103.82 153.71 103.08 153.11 105.00 153.00
C 101.55 151.95 101.08 149.69 97.00 150.00 Z"/>
</g>
<g fill="#8C8C8C" fill-opacity="1.00" stroke="None">
<path d="
M 119.00 150.00 
C 119.26 149.92 120.09 150.77 120.00 151.00
C 120.15 150.63 122.70 151.32 123.00 151.00
C 123.25 150.73 123.00 150.00 123.00 150.00
C 121.78 147.94 120.25 149.54 119.00 150.00 Z"/>
</g>
<g fill="#BDBDBD" fill-opacity="1.00" stroke="None">
<path d="
M 123.00 150.00 
C 123.00 150.00 123.25 150.73 123.00 151.00
C 124.12 153.04 127.31 150.56 128.00 149.00
C 126.40 149.64 124.59 149.50 123.00 150.00 Z"/>
</g>
<g fill="#010101" fill-opacity="1.00" stroke="None">
<path d="
M 102.00 154.00 
C 101.58 153.89 100.03 151.41 98.00 151.00
C 95.23 153.94 98.53 154.55 102.00 154.00 Z"/>
</g>
<g fill="#616161" fill-opacity="1.00" stroke="None">
<path d="
M 106.00 162.00 
C 102.34 162.07 98.66 162.07 95.00 162.00
C 98.52 162.43 102.41 162.43 106.00 162.00 Z"/>
</g>
</svg>